<svg width="900" height="200" viewBox="0 0 900 200" fill="none" xmlns="http://www.w3.org/2000/svg">
<rect width="900" height="200" fill="#0B1F3A"/>
<path d="M167.888 119V82.6H194.46V88.268H174.648V119H167.888ZM174.076 105.064V99.344H192.224V105.064H174.076ZM200.997 119V82.6H215.921C220.775 82.6 224.571 83.744 227.309 86.032C230.083 88.32 231.469 91.492 231.469 95.548C231.469 98.2173 230.845 100.523 229.597 102.464C228.349 104.371 226.564 105.844 224.241 106.884C221.953 107.889 219.197 108.392 215.973 108.392H204.741L207.757 105.324V119H200.997ZM224.813 119L215.609 105.792H222.837L232.093 119H224.813ZM207.757 106.052L204.741 102.828H215.661C218.643 102.828 220.879 102.187 222.369 100.904C223.895 99.6213 224.657 97.836 224.657 95.548C224.657 93.2253 223.895 91.44 222.369 90.192C220.879 88.944 218.643 88.32 215.661 88.32H204.741L207.757 84.992V106.052ZM233.885 119L250.265 82.6H256.921L273.353 119H266.281L252.189 86.188H254.893L240.853 119H233.885ZM241.425 110.576L243.245 105.272H262.901L264.721 110.576H241.425ZM277.982 119V82.6H283.546L299.458 109.172H296.546L312.198 82.6H317.762L317.814 119H311.418L311.366 92.636H312.718L299.406 114.84H296.39L282.87 92.636H284.43V119H277.982ZM327.646 119V82.6H354.218V88.268H334.406V113.332H354.946V119H327.646ZM333.886 103.296V97.732H351.982V103.296H333.886ZM362.482 119V82.6H378.394C382.346 82.6 385.812 83.3627 388.794 84.888C391.775 86.4133 394.098 88.528 395.762 91.232C397.426 93.936 398.258 97.1253 398.258 100.8C398.258 104.44 397.426 107.629 395.762 110.368C394.098 113.072 391.775 115.187 388.794 116.712C385.812 118.237 382.346 119 378.394 119H362.482ZM369.242 113.28H378.082C380.786 113.28 383.143 112.76 385.154 111.72C387.164 110.68 388.707 109.224 389.782 107.352C390.891 105.48 391.446 103.296 391.446 100.8C391.446 98.2693 390.891 96.0853 389.782 94.248C388.707 92.376 387.164 90.92 385.154 89.88C383.143 88.84 380.786 88.32 378.082 88.32H369.242V113.28ZM431.098 119.52C428.255 119.52 425.534 119.121 422.934 118.324C420.334 117.492 418.271 116.435 416.746 115.152L419.086 109.9C420.542 111.044 422.344 111.997 424.494 112.76C426.643 113.523 428.844 113.904 431.098 113.904C433.004 113.904 434.547 113.696 435.726 113.28C436.904 112.864 437.771 112.309 438.326 111.616C438.88 110.888 439.158 110.073 439.158 109.172C439.158 108.063 438.759 107.179 437.962 106.52C437.164 105.827 436.124 105.289 434.842 104.908C433.594 104.492 432.19 104.111 430.63 103.764C429.104 103.417 427.562 103.019 426.002 102.568C424.476 102.083 423.072 101.476 421.79 100.748C420.542 99.9853 419.519 98.98 418.722 97.732C417.924 96.484 417.526 94.8893 417.526 92.948C417.526 90.972 418.046 89.1693 419.086 87.54C420.16 85.876 421.772 84.5587 423.922 83.588C426.106 82.5827 428.862 82.08 432.19 82.08C434.374 82.08 436.54 82.3573 438.69 82.912C440.839 83.4667 442.711 84.264 444.306 85.304L442.174 90.556C440.544 89.5853 438.863 88.8747 437.13 88.424C435.396 87.9387 433.732 87.696 432.138 87.696C430.266 87.696 428.74 87.9213 427.562 88.372C426.418 88.8227 425.568 89.412 425.014 90.14C424.494 90.868 424.234 91.7 424.234 92.636C424.234 93.7453 424.615 94.6467 425.378 95.34C426.175 95.9987 427.198 96.5187 428.446 96.9C429.728 97.2813 431.15 97.6627 432.71 98.044C434.27 98.3907 435.812 98.7893 437.338 99.24C438.898 99.6907 440.302 100.28 441.55 101.008C442.832 101.736 443.855 102.724 444.618 103.972C445.415 105.22 445.814 106.797 445.814 108.704C445.814 110.645 445.276 112.448 444.202 114.112C443.162 115.741 441.55 117.059 439.366 118.064C437.182 119.035 434.426 119.52 431.098 119.52ZM452.517 119V82.6H467.493C470.717 82.6 473.473 83.12 475.761 84.16C478.084 85.2 479.869 86.6907 481.117 88.632C482.365 90.5733 482.989 92.8787 482.989 95.548C482.989 98.2173 482.365 100.523 481.117 102.464C479.869 104.405 478.084 105.896 475.761 106.936C473.473 107.976 470.717 108.496 467.493 108.496H456.261L459.277 105.324V119H452.517ZM459.277 106.052L456.261 102.776H467.181C470.162 102.776 472.398 102.152 473.889 100.904C475.414 99.6213 476.177 97.836 476.177 95.548C476.177 93.2253 475.414 91.44 473.889 90.192C472.398 88.944 470.162 88.32 467.181 88.32H456.261L459.277 84.992V106.052ZM489.74 119V82.6H496.5V113.28H515.532V119H489.74ZM520.868 119V82.6H547.44V88.268H527.628V113.332H548.168V119H520.868ZM527.108 103.296V97.732H545.204V103.296H527.108ZM555.704 119V82.6H561.268L584.096 110.628H581.34V82.6H588.048V119H582.484L559.656 90.972H562.412V119H555.704ZM597.802 119V82.6H613.714C617.666 82.6 621.133 83.3627 624.114 84.888C627.095 86.4133 629.418 88.528 631.082 91.232C632.746 93.936 633.578 97.1253 633.578 100.8C633.578 104.44 632.746 107.629 631.082 110.368C629.418 113.072 627.095 115.187 624.114 116.712C621.133 118.237 617.666 119 613.714 119H597.802ZM604.562 113.28H613.402C616.106 113.28 618.463 112.76 620.474 111.72C622.485 110.68 624.027 109.224 625.102 107.352C626.211 105.48 626.766 103.296 626.766 100.8C626.766 98.2693 626.211 96.0853 625.102 94.248C624.027 92.376 622.485 90.92 620.474 89.88C618.463 88.84 616.106 88.32 613.402 88.32H604.562V113.28ZM657.819 119.52C654.976 119.52 652.359 119.052 649.967 118.116C647.575 117.18 645.495 115.88 643.727 114.216C641.959 112.517 640.59 110.541 639.619 108.288C638.648 106 638.163 103.504 638.163 100.8C638.163 98.096 638.648 95.6173 639.619 93.364C640.59 91.076 641.959 89.1 643.727 87.436C645.495 85.7373 647.575 84.42 649.967 83.484C652.359 82.548 654.959 82.08 657.767 82.08C660.61 82.08 663.21 82.548 665.567 83.484C667.959 84.42 670.039 85.7373 671.807 87.436C673.575 89.1 674.944 91.076 675.915 93.364C676.886 95.6173 677.371 98.096 677.371 100.8C677.371 103.504 676.886 106 675.915 108.288C674.944 110.576 673.575 112.552 671.807 114.216C670.039 115.88 667.959 117.18 665.567 118.116C663.21 119.052 660.627 119.52 657.819 119.52ZM657.767 113.592C659.604 113.592 661.303 113.28 662.863 112.656C664.423 112.032 665.775 111.148 666.919 110.004C668.063 108.825 668.947 107.473 669.571 105.948C670.23 104.388 670.559 102.672 670.559 100.8C670.559 98.928 670.23 97.2293 669.571 95.704C668.947 94.144 668.063 92.792 666.919 91.648C665.775 90.4693 664.423 89.568 662.863 88.944C661.303 88.32 659.604 88.008 657.767 88.008C655.93 88.008 654.231 88.32 652.671 88.944C651.146 89.568 649.794 90.4693 648.615 91.648C647.471 92.792 646.57 94.144 645.911 95.704C645.287 97.2293 644.975 98.928 644.975 100.8C644.975 102.637 645.287 104.336 645.911 105.896C646.57 107.456 647.471 108.825 648.615 110.004C649.759 111.148 651.111 112.032 652.671 112.656C654.231 113.28 655.93 113.592 657.767 113.592ZM684.536 119V82.6H699.46C704.314 82.6 708.11 83.744 710.848 86.032C713.622 88.32 715.008 91.492 715.008 95.548C715.008 98.2173 714.384 100.523 713.136 102.464C711.888 104.371 710.103 105.844 707.78 106.884C705.492 107.889 702.736 108.392 699.512 108.392H688.28L691.296 105.324V119H684.536ZM708.352 119L699.148 105.792H706.376L715.632 119H708.352ZM691.296 106.052L688.28 102.828H699.2C702.182 102.828 704.418 102.187 705.908 100.904C707.434 99.6213 708.196 97.836 708.196 95.548C708.196 93.2253 707.434 91.44 705.908 90.192C704.418 88.944 702.182 88.32 699.2 88.32H688.28L691.296 84.992V106.052Z" fill="white"/>
</svg>
